<svg width="345" height="53" viewBox="0 0 345 53" fill="none" xmlns="http://www.w3.org/2000/svg">
<path d="M0.64 52L23.32 1.6H32.536L55.288 52H45.496L25.984 6.568H29.728L10.288 52H0.64ZM11.08 40.336L13.6 32.992H40.816L43.336 40.336H11.08ZM61.6977 52V1.6H69.4017L101.01 40.408H97.1937V1.6H106.482V52H98.7777L67.1697 13.192H70.9857V52H61.6977ZM119.987 52V1.6H129.347V52H119.987ZM142.979 52V1.6H150.683L172.715 38.392H168.683L190.355 1.6H198.059L198.131 52H189.275L189.203 15.496H191.075L172.643 46.24H168.467L149.747 15.496H151.907V52H142.979ZM204.617 52L227.297 1.6H236.513L259.265 52H249.473L229.961 6.568H233.705L214.265 52H204.617ZM215.057 40.336L217.577 32.992H244.793L247.313 40.336H215.057ZM265.674 52V1.6H275.034V44.08H301.386V52H265.674ZM324.048 52.72C320.112 52.72 316.344 52.168 312.744 51.064C309.144 49.912 306.288 48.448 304.176 46.672L307.416 39.4C309.432 40.984 311.928 42.304 314.904 43.36C317.88 44.416 320.928 44.944 324.048 44.944C326.688 44.944 328.824 44.656 330.456 44.08C332.088 43.504 333.288 42.736 334.056 41.776C334.824 40.768 335.208 39.64 335.208 38.392C335.208 36.856 334.656 35.632 333.552 34.72C332.448 33.76 331.008 33.016 329.232 32.488C327.504 31.912 325.56 31.384 323.4 30.904C321.288 30.424 319.152 29.872 316.992 29.248C314.88 28.576 312.936 27.736 311.16 26.728C309.432 25.672 308.016 24.28 306.912 22.552C305.808 20.824 305.256 18.616 305.256 15.928C305.256 13.192 305.976 10.696 307.416 8.44C308.904 6.136 311.136 4.312 314.112 2.968C317.136 1.576 320.952 0.879997 325.56 0.879997C328.584 0.879997 331.584 1.264 334.56 2.032C337.536 2.8 340.128 3.904 342.336 5.344L339.384 12.616C337.128 11.272 334.8 10.288 332.4 9.664C330 8.992 327.696 8.656 325.488 8.656C322.896 8.656 320.784 8.968 319.152 9.592C317.568 10.216 316.392 11.032 315.624 12.04C314.904 13.048 314.544 14.2 314.544 15.496C314.544 17.032 315.072 18.28 316.128 19.24C317.232 20.152 318.648 20.872 320.376 21.4C322.152 21.928 324.12 22.456 326.28 22.984C328.44 23.464 330.576 24.016 332.688 24.64C334.848 25.264 336.792 26.08 338.52 27.088C340.296 28.096 341.712 29.464 342.768 31.192C343.872 32.92 344.424 35.104 344.424 37.744C344.424 40.432 343.68 42.928 342.192 45.232C340.752 47.488 338.52 49.312 335.496 50.704C332.472 52.048 328.656 52.72 324.048 52.72Z" fill="#4682B4"/>
</svg>
